<svg width="15" height="17" viewBox="0 0 15 17" fill="none" xmlns="http://www.w3.org/2000/svg">
<path fill-rule="evenodd" clip-rule="evenodd" d="M3.34287 3.33714C4.83921 1.07745 7.72101 0.222755 10.318 1.06203C12.9151 1.90131 14.7517 4.28084 14.6426 6.98886C14.6164 7.63993 14.5777 8.29057 14.5206 8.86586C14.3875 10.2085 14.0733 11.9565 13.8391 13.1614C13.6186 14.2953 12.5337 15.049 11.3587 14.8627C9.9502 14.6393 7.79126 14.2494 6.22037 13.7418C4.64947 13.2341 2.67065 12.2868 1.39785 11.6437C0.335991 11.1071 -0.102614 9.86103 0.382203 8.81255C0.897355 7.69847 1.66558 6.09717 2.34335 4.93055C2.63375 4.43069 2.98311 3.88042 3.34287 3.33714ZM9.94553 2.21473C7.84007 1.53432 5.55578 2.23933 4.38426 4.00849C4.03149 4.54122 3.69588 5.0704 3.42142 5.54282C2.77365 6.65781 2.02507 8.21563 1.51122 9.3269C1.29607 9.79218 1.49103 10.3327 1.9527 10.566C3.22277 11.2077 5.12461 12.1146 6.59288 12.5891C8.06116 13.0636 10.134 13.4412 11.5395 13.6641C12.0503 13.7451 12.5247 13.4209 12.6226 12.9177C12.8562 11.7159 13.1609 10.0146 13.2881 8.73142C13.342 8.18773 13.3796 7.56222 13.4053 6.9238C13.4907 4.80363 12.051 2.89515 9.94553 2.21473Z" fill="#979797"/>
<path fill-rule="evenodd" clip-rule="evenodd" d="M5.01831 12.0802C5.34442 12.1856 5.52539 12.5291 5.42252 12.8474L5.17418 13.6158C5.00273 14.1464 5.30435 14.7188 5.84785 14.8945C6.39136 15.0701 6.97094 14.7824 7.14239 14.2519L7.39073 13.4834C7.4936 13.1651 7.84135 12.9925 8.16745 13.0979C8.49356 13.2033 8.67453 13.5468 8.57166 13.8651L8.32332 14.6335C7.94614 15.8007 6.67105 16.4336 5.47534 16.0472C4.27962 15.6607 3.61607 14.4013 3.99325 13.2342L4.24159 12.4657C4.34446 12.1474 4.69221 11.9748 5.01831 12.0802Z" fill="#979797"/>
</svg>
