<svg width="14" height="14" viewBox="0 0 14 14" fill="none" xmlns="http://www.w3.org/2000/svg">
<path d="M13.5896 9.19912C13.4852 10.3545 13.3173 11.2934 13.1131 12.1311C12.977 12.9687 12.1602 13.6668 11.2753 13.6668H10.1863C9.57366 13.6668 9.0972 13.1782 9.0972 12.5499V9.68777C9.0972 8.98969 8.55267 8.43123 7.87201 8.43123H6.3065C5.62584 8.43123 5.08131 8.98969 5.08131 9.68777V12.5499C5.08131 13.1782 4.60485 13.6668 3.99225 13.6668H2.699C1.81414 13.6668 1.06542 13.0386 0.861218 12.1311C0.65702 11.2235 0.479975 10.3553 0.384756 9.19912C0.263912 7.73175 0.384756 6.33699 0.452822 5.42948C0.452822 4.87102 0.793152 4.31255 1.26961 3.96351L6.03423 0.682536C6.3065 0.473112 6.64683 0.333496 6.98716 0.333496C7.32749 0.333496 7.73588 0.473112 8.00815 0.682536L12.7728 3.96351C13.2492 4.31255 13.5896 4.87102 13.5896 5.42948C13.6576 6.33699 13.722 7.73301 13.5896 9.19912Z" fill="#1D191F"/>
</svg>
