<svg width="43" height="24" viewBox="0 0 43 24" fill="none" xmlns="http://www.w3.org/2000/svg">
<path fill-rule="evenodd" clip-rule="evenodd" d="M12.3482 0.298828C14.2908 0.298828 16.1248 0.752624 17.7448 1.55746C16.4557 3.03214 15.4369 4.73842 14.7631 6.6034C14.025 6.28351 13.2079 6.10576 12.3482 6.10576C9.06025 6.10576 6.39485 8.70561 6.39485 11.9127C6.39485 15.1198 9.06025 17.7196 12.3482 17.7196C15.6361 17.7196 18.3015 15.1198 18.3015 11.9127C18.3015 8.96728 19.4256 6.27796 21.2782 4.23063C23.4599 1.81953 26.652 0.298828 30.2081 0.298828C36.784 0.298828 42.1148 5.49853 42.1148 11.9127C42.1148 18.3268 36.784 23.5266 30.2081 23.5266C26.652 23.5266 23.4599 22.0058 21.2782 19.5947C19.0964 22.0058 15.9044 23.5266 12.3482 23.5266C5.77232 23.5266 0.441528 18.3268 0.441528 11.9127C0.441528 5.49853 5.77232 0.298828 12.3482 0.298828ZM24.2548 11.9127C24.2548 15.1198 26.9202 17.7196 30.2081 17.7196C33.4961 17.7196 36.1615 15.1198 36.1615 11.9127C36.1615 8.70561 33.4961 6.10576 30.2081 6.10576C26.9202 6.10576 24.2548 8.70561 24.2548 11.9127Z" fill="#1D191F"/>
</svg>
