<svg width="115" height="22" viewBox="0 0 115 22" fill="none" xmlns="http://www.w3.org/2000/svg">
<path d="M73.2503 15.2245C72.0646 15.2245 71.2665 14.2945 71.2665 12.8314C71.2665 11.3796 72.0304 10.4722 73.2731 10.4722C74.2763 10.4722 74.6982 11.0393 74.7552 12.1508H77.7536C78.0956 9.59889 75.9979 8.03369 73.2503 8.03369C70.2291 8.03369 68.2567 9.93915 68.2567 12.8541C68.2567 15.7576 70.2405 17.6744 73.2161 17.6744C75.747 17.6744 77.48 16.302 78.0272 14.1924H74.8692C74.5272 14.8276 74.0141 15.2245 73.2503 15.2245Z" fill="#1D191F"/>
<path d="M100.863 15.2245C99.6773 15.2245 98.8792 14.2945 98.8792 12.8314C98.8792 11.3796 99.6431 10.4722 100.886 10.4722C101.889 10.4722 102.311 11.0393 102.368 12.1508H105.366C105.708 9.59889 103.611 8.03369 100.863 8.03369C97.8417 8.03369 95.8694 9.93915 95.8694 12.8541C95.8694 15.7576 97.8531 17.6744 100.829 17.6744C103.36 17.6744 105.093 16.302 105.64 14.1924H102.482C102.14 14.8276 101.627 15.2245 100.863 15.2245Z" fill="#1D191F"/>
<path d="M37.4517 12.8541C37.4517 9.95049 39.4354 8.03369 42.411 8.03369C45.3866 8.03369 47.3704 9.96184 47.3704 12.8541C47.3704 15.7463 45.3752 17.6744 42.411 17.6744C39.4354 17.6744 37.4517 15.7576 37.4517 12.8541ZM44.3606 12.8541C44.3606 11.4023 43.5739 10.4836 42.411 10.4836C41.2481 10.4836 40.4615 11.4136 40.4615 12.8541C40.4615 14.2832 41.2481 15.2245 42.411 15.2245C43.5739 15.2245 44.3606 14.2832 44.3606 12.8541Z" fill="#1D191F"/>
<path d="M78.4604 12.8541C78.4604 9.95049 80.4442 8.03369 83.4198 8.03369C86.3954 8.03369 88.3792 9.96184 88.3792 12.8541C88.3792 15.7463 86.3954 17.6744 83.4198 17.6744C80.4556 17.6744 78.4604 15.7576 78.4604 12.8541ZM85.3807 12.8541C85.3807 11.4023 84.5941 10.4836 83.4312 10.4836C82.2683 10.4836 81.4817 11.4136 81.4817 12.8541C81.4817 14.2832 82.2683 15.2245 83.4312 15.2245C84.5941 15.2245 85.3807 14.2832 85.3807 12.8541Z" fill="#1D191F"/>
<path d="M94.2164 15.2249C93.3727 15.2249 93.1561 14.7939 93.1561 14.2268V10.7675H94.9004V8.3176H94.6154C94.376 8.3176 93.8173 8.3176 93.1561 8.3176H91.9362C92.643 7.82989 93.1333 7.06997 93.1333 6.20798V5.91309H90.2375V8.3176H88.5844V10.7675H90.2375V14.2268C90.2375 15.5652 90.5681 17.6748 93.6235 17.6748C94.4786 17.6748 95.1398 17.516 95.5958 17.2211V14.7372C95.1056 15.0434 94.7636 15.2249 94.2164 15.2249Z" fill="#1D191F"/>
<path d="M115 11.9242V17.3797H112.081V12.2758C112.081 11.3344 111.625 10.7333 110.862 10.7106C109.573 10.6766 109.186 11.255 109.163 13.2285V17.3797H106.256V4.68799H109.083V7.05847C109.083 8.58965 108.376 9.80324 108.114 10.3703C108.046 10.5291 108.16 10.6993 108.331 10.6993C108.456 10.6993 108.49 10.5858 108.559 10.4951C109.254 9.50835 110.063 8.10194 112.002 8.10194C113.963 8.0906 115 9.42896 115 11.9242Z" fill="#1D191F"/>
<path d="M36.6537 11.9247V17.3802H33.735V11.9247C33.735 10.9833 33.279 10.3595 32.5152 10.3595C31.5347 10.3595 30.8164 11.3803 30.8164 12.8774V17.3802H27.8978V4.68848H30.7252V7.05896C30.7252 8.59014 29.779 9.81507 29.5281 10.3708C29.4597 10.5296 29.5737 10.6998 29.7334 10.6998C29.7334 10.6998 29.7334 10.6998 29.7448 10.6998C29.8588 10.6998 29.9158 10.5977 29.9728 10.4956C30.4858 9.45213 31.7057 8.09109 33.6438 8.09109C35.6048 8.09109 36.6537 9.42945 36.6537 11.9247Z" fill="#1D191F"/>
<path d="M58.395 12.854C58.395 15.7576 56.6278 17.6971 54.1881 17.6971C52.8542 17.6971 51.7939 17.1186 51.1212 16.0978V21.0089H48.2026V7.98828H51.1212V8.62344C51.1212 9.07712 50.5398 9.85972 50.3118 10.3021C50.232 10.4608 50.346 10.6423 50.5284 10.6423C50.6538 10.6423 50.6994 10.5289 50.7678 10.4268C51.4177 9.40604 52.3867 8.02231 54.1653 8.02231C56.605 8.02231 58.395 9.95045 58.395 12.854ZM55.3851 12.854C55.3851 11.4249 54.5301 10.4835 53.2532 10.4835C51.9763 10.4835 51.1212 11.4249 51.1212 12.854C51.1212 14.2831 51.9763 15.2472 53.2532 15.2472C54.5301 15.2472 55.3851 14.2831 55.3851 12.854Z" fill="#1D191F"/>
<path d="M62.0661 10.96C62.0661 10.6198 62.431 10.2682 63.2518 10.2682C64.0499 10.2682 64.4489 10.5744 64.5401 11.1302H67.4359C67.5043 9.08861 65.6346 8.02246 63.229 8.02246C60.7778 8.02246 59.0563 9.14532 59.0563 11.0735C59.0563 14.6122 64.7225 13.4893 64.7225 14.7369C64.7225 15.1339 64.1411 15.4401 63.3202 15.4401C62.6362 15.4401 62.1459 15.2247 61.9179 14.873H58.9879C59.2501 16.5857 60.8576 17.6745 63.343 17.6745C65.8968 17.6745 67.7323 16.5517 67.7323 14.5668C67.7437 11.1075 62.0661 12.3211 62.0661 10.96Z" fill="#1D191F"/>
<path d="M12.0734 7.04737C14.6158 7.04737 16.8389 8.4311 18.036 10.4727V4.03039C18.036 2.35177 16.6679 0.990723 14.9806 0.990723C13.2933 0.990723 11.9252 2.35177 11.9252 4.03039V7.04737H12.0734Z" fill="#1D191F"/>
<path d="M18.0361 17.9811V14.9414H11.9366V17.9811C11.9366 19.6597 13.3047 21.0207 14.9921 21.0207C16.6794 21.0207 18.0361 19.6483 18.0361 17.9811Z" fill="#1D191F"/>
<path d="M0 4.01916V7.05882H6.09944V4.01916C6.09944 2.34054 4.73134 0.979492 3.04402 0.979492C1.3567 0.979492 0 2.34054 0 4.01916Z" fill="#1D191F"/>
<path d="M5.96263 14.9414C3.42024 14.9414 1.18568 13.569 0 11.5161V17.9811C0 19.6597 1.3681 21.0207 3.05542 21.0207C4.74274 21.0207 6.11084 19.6597 6.11084 17.9811V14.9414H5.96263Z" fill="#1D191F"/>
<path d="M0 7.96631V8.10241C0 11.3689 2.66779 14.023 5.96263 14.023H6.09944V7.96631H0Z" fill="#1D191F"/>
<path d="M12.0735 7.96631H7.02295V14.0343H18.0361V13.8982C18.0361 10.6203 15.3569 7.96631 12.0735 7.96631Z" fill="#1D191F"/>
</svg>
