<svg width="11" height="10" viewBox="0 0 11 10" fill="none" xmlns="http://www.w3.org/2000/svg">
<path fill-rule="evenodd" clip-rule="evenodd" d="M9.41378 0.917955C9.45366 0.817088 9.35262 0.717711 9.25008 0.756936L0.856085 3.96775C0.750403 4.00818 0.748041 4.15442 0.852366 4.19813L4.07505 5.54825C4.28544 5.63639 4.453 5.8012 4.54261 6.00814L5.91523 9.178C5.95967 9.28061 6.10835 9.27829 6.14945 9.17434L9.41378 0.917955ZM8.97506 0.0613328C9.69288 -0.213246 10.4001 0.482411 10.121 1.18847L6.85664 9.44485C6.56895 10.1725 5.52816 10.1888 5.21713 9.47046L3.8445 6.30061C3.8317 6.27105 3.80776 6.2475 3.77771 6.23491L0.555024 4.88479C-0.175242 4.57885 -0.158712 3.55512 0.581065 3.27215L8.97506 0.0613328Z" fill="white"/>
</svg>
