<svg width="14" height="14" viewBox="0 0 14 14" fill="none" xmlns="http://www.w3.org/2000/svg">
<path d="M9.35903 6.66006C10.8633 6.66006 12.0941 5.43557 12.0941 3.93897C12.0941 2.44237 10.8633 1.21788 9.35903 1.21788C9.29065 1.21788 9.22228 1.21788 9.1539 1.21788C9.56416 1.89816 9.83766 2.71448 9.83766 3.53081C9.83766 4.68727 9.35903 5.77571 8.60689 6.59203C8.81202 6.66006 9.08552 6.66006 9.35903 6.66006Z" fill="#1D191F"/>
<path d="M10.5214 8.08853H9.83769C10.8633 8.97289 11.5471 10.3334 11.5471 11.83C11.5471 12.1702 11.4787 12.4423 11.4103 12.7144C12.2992 12.5783 12.8462 12.3742 13.1881 12.1702C13.53 11.9661 13.6667 11.6259 13.6667 11.2178C13.6667 9.5171 12.2308 8.08853 10.5214 8.08853Z" fill="#1D191F"/>
<path d="M5.25643 6.66003C6.07695 6.66003 6.76071 6.38792 7.37609 5.8437C8.05985 5.29948 8.40173 4.41513 8.40173 3.53077C8.40173 2.8505 8.1966 2.17023 7.78635 1.69404C7.23934 0.877714 6.35045 0.333496 5.25643 0.333496C3.54703 0.333496 2.11114 1.76207 2.11114 3.46275C2.11114 5.23146 3.54703 6.66003 5.25643 6.66003Z" fill="#1D191F"/>
<path d="M7.1026 8.29275C6.89748 8.29275 6.76072 8.22472 6.5556 8.22472H3.95731C1.9744 8.22472 0.333374 9.85737 0.333374 11.8302C0.333374 12.3064 0.538502 12.6465 0.880382 12.9186C1.42739 13.2587 2.72654 13.6669 5.25645 13.6669C7.78636 13.6669 9.01713 13.2587 9.63252 12.9186C9.63252 12.9186 9.70089 12.8506 9.76927 12.8506C10.0428 12.6465 10.2479 12.3064 10.2479 11.8302C10.1795 10.0615 8.88038 8.56485 7.1026 8.29275Z" fill="#1D191F"/>
</svg>
