<svg width="14" height="14" viewBox="0 0 14 14" fill="none" xmlns="http://www.w3.org/2000/svg">
<path fill-rule="evenodd" clip-rule="evenodd" d="M5.24175 1.35914C4.0684 1.35914 3.11721 2.31033 3.11721 3.48368C3.11721 4.65703 4.0684 5.60822 5.24175 5.60822C6.4151 5.60822 7.36629 4.65703 7.36629 3.48368C7.36629 2.31033 6.4151 1.35914 5.24175 1.35914ZM2.09157 3.48368C2.09157 1.74388 3.50195 0.333496 5.24175 0.333496C6.98155 0.333496 8.39194 1.74388 8.39194 3.48368C8.39194 5.22348 6.98155 6.63386 5.24175 6.63386C3.50195 6.63386 2.09157 5.22348 2.09157 3.48368Z" fill="#979797"/>
<path fill-rule="evenodd" clip-rule="evenodd" d="M3.94101 9.27122C2.51499 9.27122 1.35897 10.4272 1.35897 11.8533C1.35897 11.9242 1.37121 11.9733 1.3835 12.001C1.3934 12.0234 1.4007 12.0276 1.40394 12.0295C1.75568 12.2362 2.76755 12.6412 5.24175 12.6412C7.71595 12.6412 8.72753 12.2364 9.07927 12.0297C9.0825 12.0278 9.0901 12.0234 9.1 12.001C9.1123 11.9733 9.12454 11.9242 9.12454 11.8533C9.12454 10.4272 7.96852 9.27122 6.54249 9.27122H3.94101ZM0.333328 11.8533C0.333328 9.8608 1.94854 8.24558 3.94101 8.24558H6.54249C8.53496 8.24558 10.1502 9.8608 10.1502 11.8533C10.1502 12.1965 10.0342 12.6581 9.59896 12.9139C9.02536 13.251 7.80592 13.6668 5.24175 13.6668C2.67759 13.6668 1.45814 13.251 0.884549 12.9139C0.449312 12.6581 0.333328 12.1965 0.333328 11.8533Z" fill="#979797"/>
<path fill-rule="evenodd" clip-rule="evenodd" d="M9.36208 1.59164C9.43598 1.31822 9.71753 1.15648 9.99094 1.23038C11.1221 1.53611 11.9084 2.65316 11.9084 3.92324C11.9084 5.26525 10.9886 6.47524 9.69852 6.6302C9.41732 6.66398 9.16198 6.4634 9.1282 6.1822C9.09442 5.901 9.295 5.64566 9.5762 5.61188C10.2641 5.52925 10.8828 4.83843 10.8828 3.92324C10.8828 3.05492 10.3504 2.38996 9.72334 2.22049C9.44993 2.1466 9.28819 1.86505 9.36208 1.59164Z" fill="#979797"/>
<path fill-rule="evenodd" clip-rule="evenodd" d="M10.8923 8.66024C10.9465 8.38225 11.2158 8.20085 11.4938 8.25507C12.7558 8.5012 13.6667 9.60685 13.6667 10.8927V11.2491C13.6667 11.5648 13.572 12.0143 13.1603 12.2775C12.8831 12.4546 12.4532 12.6434 11.7903 12.7775C11.5127 12.8337 11.2422 12.6542 11.186 12.3766C11.1298 12.099 11.3094 11.8284 11.5869 11.7723C12.1524 11.6578 12.4581 11.509 12.6079 11.4133L12.6091 11.4121C12.6102 11.4107 12.6142 11.4053 12.6192 11.3932C12.6301 11.3667 12.641 11.3191 12.641 11.2491V10.8927C12.641 10.0976 12.0778 9.41393 11.2974 9.26174C11.0195 9.20753 10.838 8.93823 10.8923 8.66024Z" fill="#979797"/>
</svg>
