<svg width="14" height="14" viewBox="0 0 14 14" fill="none" xmlns="http://www.w3.org/2000/svg">
<path fill-rule="evenodd" clip-rule="evenodd" d="M7.47777 1.5304C7.18902 1.33156 6.81106 1.33156 6.52232 1.5304L1.76228 4.80819C1.54022 4.9611 1.40502 5.20751 1.39502 5.4721C1.36047 6.38674 1.32384 7.98841 1.42443 9.12526C1.50031 9.98289 1.70228 11.1166 1.86633 11.9505C1.94252 12.3378 2.27962 12.6191 2.68029 12.6191H4.89626C4.99067 12.6191 5.0672 12.5409 5.0672 12.4444V9.65036C5.0672 8.97524 5.60293 8.42795 6.26378 8.42795H7.93944C8.60029 8.42795 9.13602 8.97524 9.13602 9.65036V12.4444C9.13602 12.5409 9.21255 12.6191 9.30696 12.6191H11.3198C11.7205 12.6191 12.0576 12.3378 12.1337 11.9505C12.2978 11.1166 12.4998 9.98289 12.5757 9.12526C12.6762 7.98841 12.6396 6.38674 12.6051 5.4721C12.5951 5.20751 12.4599 4.9611 12.2378 4.80819L7.47777 1.5304ZM5.94905 0.66157C6.58429 0.224138 7.41579 0.224138 8.05103 0.66157L12.8111 3.93936C13.2972 4.27411 13.607 4.82446 13.6299 5.4317C13.6645 6.3453 13.7043 8.00807 13.5971 9.21959C13.5159 10.1379 13.3041 11.3192 13.1393 12.157C12.9641 13.0475 12.195 13.6668 11.3198 13.6668H9.30696C8.6461 13.6668 8.11038 13.1195 8.11038 12.4444V9.65036C8.11038 9.55391 8.03384 9.47573 7.93944 9.47573H6.26378C6.16937 9.47573 6.09284 9.55391 6.09284 9.65036V12.4444C6.09284 13.1195 5.55711 13.6668 4.89626 13.6668H2.68029C1.80511 13.6668 1.03597 13.0475 0.860792 12.157C0.695988 11.3192 0.484202 10.1379 0.402951 9.21959C0.295758 8.00807 0.335628 6.3453 0.370144 5.4317C0.393085 4.82447 0.70289 4.27411 1.18901 3.93936L5.94905 0.66157Z" fill="#979797"/>
</svg>
