<svg width="19" height="10" viewBox="0 0 19 10" fill="none" xmlns="http://www.w3.org/2000/svg">
<path fill-rule="evenodd" clip-rule="evenodd" d="M5.48563 0C6.32472 0 7.11687 0.195368 7.81659 0.541868C7.25982 1.17675 6.81976 1.91133 6.52872 2.71424C6.20992 2.57653 5.85697 2.5 5.48563 2.5C4.06547 2.5 2.9142 3.61929 2.9142 5C2.9142 6.38071 4.06547 7.5 5.48563 7.5C6.90579 7.5 8.05706 6.38071 8.05706 5C8.05706 3.73194 8.54259 2.57414 9.34277 1.69272C10.2851 0.654694 11.6639 0 13.1999 0C16.0402 0 18.3428 2.23858 18.3428 5C18.3428 7.76142 16.0402 10 13.1999 10C11.6639 10 10.2851 9.34531 9.34277 8.30728C8.40042 9.34531 7.02166 10 5.48563 10C2.64531 10 0.342773 7.76142 0.342773 5C0.342773 2.23858 2.64531 0 5.48563 0ZM10.6285 5C10.6285 6.38071 11.7798 7.5 13.1999 7.5C14.6201 7.5 15.7713 6.38071 15.7713 5C15.7713 3.61929 14.6201 2.5 13.1999 2.5C11.7798 2.5 10.6285 3.61929 10.6285 5Z" fill="#1D191F"/>
</svg>
