<svg width="26" height="27" viewBox="0 0 26 27" fill="none" xmlns="http://www.w3.org/2000/svg">
<path d="M11.0082 2.89577C12.0439 1.65003 13.9561 1.65003 14.9918 2.89577V2.89577C15.6303 3.66383 16.6536 3.99631 17.6216 3.75026V3.75026C19.1917 3.35119 20.7387 4.47516 20.8444 6.09174V6.09174C20.9095 7.08844 21.5419 7.95887 22.4697 8.32882V8.32882C23.9745 8.92885 24.5654 10.7475 23.7007 12.1174V12.1174C23.1676 12.962 23.1676 14.038 23.7007 14.8826V14.8826C24.5654 16.2525 23.9745 18.0712 22.4697 18.6712V18.6712C21.5419 19.0411 20.9095 19.9116 20.8444 20.9083V20.9083C20.7387 22.5248 19.1917 23.6488 17.6216 23.2497V23.2497C16.6536 23.0037 15.6303 23.3362 14.9918 24.1042V24.1042C13.9561 25.35 12.0439 25.35 11.0082 24.1042V24.1042C10.3697 23.3362 9.34642 23.0037 8.37838 23.2497V23.2497C6.80827 23.6488 5.26126 22.5248 5.15561 20.9083V20.9083C5.09047 19.9116 4.45806 19.0411 3.53027 18.6712V18.6712C2.02546 18.0712 1.43456 16.2525 2.29929 14.8826V14.8826C2.83243 14.038 2.83243 12.962 2.29929 12.1174V12.1174C1.43456 10.7475 2.02546 8.92885 3.53027 8.32882V8.32882C4.45806 7.95887 5.09047 7.08844 5.15561 6.09174V6.09174C5.26126 4.47516 6.80827 3.35119 8.37838 3.75026V3.75026C9.34642 3.99631 10.3697 3.66383 11.0082 2.89577V2.89577Z" fill="#FFF86D"/>
<g clip-path="url(#clip0_1_44)">
<path fill-rule="evenodd" clip-rule="evenodd" d="M16.9099 11.3395C17.03 11.4588 17.03 11.6523 16.9099 11.7716L11.9868 16.6605C11.8666 16.7798 11.6718 16.7798 11.5517 16.6605L9.09012 14.2161C8.96996 14.0967 8.96996 13.9033 9.09012 13.7839C9.21028 13.6646 9.4051 13.6646 9.52526 13.7839L11.7692 16.0123L16.4747 11.3395C16.5949 11.2202 16.7897 11.2202 16.9099 11.3395Z" fill="white" stroke="#1D191F" stroke-linecap="round" stroke-linejoin="round"/>
</g>
<defs>
<clipPath id="clip0_1_44">
<rect width="12" height="11" fill="white" transform="translate(7 8.5)"/>
</clipPath>
</defs>
</svg>
