<svg width="69" height="69" viewBox="0 0 69 69" fill="none" xmlns="http://www.w3.org/2000/svg">
<rect width="69" height="69" rx="4" fill="#FFF86D"/>
<path fill-rule="evenodd" clip-rule="evenodd" d="M25.3482 23.2988C27.2908 23.2988 29.1248 23.7526 30.7448 24.5575C29.4557 26.0321 28.4369 27.7384 27.7631 29.6034C27.025 29.2835 26.2079 29.1058 25.3482 29.1058C22.0602 29.1058 19.3949 31.7056 19.3949 34.9127C19.3949 38.1198 22.0602 40.7196 25.3482 40.7196C28.6361 40.7196 31.3015 38.1198 31.3015 34.9127C31.3015 31.9673 32.4256 29.278 34.2782 27.2306C36.4599 24.8195 39.652 23.2988 43.2081 23.2988C49.784 23.2988 55.1148 28.4985 55.1148 34.9127C55.1148 41.3268 49.784 46.5266 43.2081 46.5266C39.652 46.5266 36.4599 45.0058 34.2782 42.5947C32.0964 45.0058 28.9044 46.5266 25.3482 46.5266C18.7723 46.5266 13.4415 41.3268 13.4415 34.9127C13.4415 28.4985 18.7723 23.2988 25.3482 23.2988ZM37.2548 34.9127C37.2548 38.1198 39.9202 40.7196 43.2081 40.7196C46.4961 40.7196 49.1615 38.1198 49.1615 34.9127C49.1615 31.7056 46.4961 29.1058 43.2081 29.1058C39.9202 29.1058 37.2548 31.7056 37.2548 34.9127Z" fill="#1D191F"/>
</svg>
